<svg id="e98ffe8a-857e-41f7-950d-542554891369" data-name="Layer 1" xmlns="http://www.w3.org/2000/svg" viewBox="0 0 283.46 104.01"><path d="M818,488l30.83,53.27s3.32,5.27,9.53,5.27a9.44,9.44,0,0,0,8.48-5.58l14.07-23.9,14.24,24.06s3,5.38,8.89,5.38,7.42-2.38,10.76-8.17,29-50.33,29-50.33Z" transform="translate(-818 -488)" style="fill:#3c3c3b;fill-rule:evenodd"/><path d="M879.84,568.33l-19.5-11.26a1.18,1.18,0,0,1,.59-2.19h40.16a1.14,1.14,0,0,1,1,.59,1.12,1.12,0,0,1,0,1.17L882,591.42a1.14,1.14,0,0,1-1.31.55,1.16,1.16,0,0,1-.87-1.13V568.33Z" transform="translate(-818 -488)" style="fill:#3c3c3b;fill-rule:evenodd"/><path d="M876.89,491.73H891L866,535c-1.93,3.35-3.16,7-7,7h0c-3.87,0-9-3.69-7-7l24.93-43.23Z" transform="translate(-818 -488)" style="fill:#fff;fill-rule:evenodd"/><path d="M923.28,491.79h14.07L912.45,535c-1.93,3.35-3.16,7-7,7h0c-3.87,0-9-3.69-7-7l24.89-43.17Z" transform="translate(-818 -488)" style="fill:#fff;fill-rule:evenodd"/><path d="M980.72,547.92a.24.24,0,0,0,.21.16h.19a.22.22,0,0,0,.2-.12l2-5.82h.06l2.06,5.82a.22.22,0,0,0,.2.12h.19a.24.24,0,0,0,.21-.16l2.21-7.86a.2.2,0,0,0-.21-.28h-.78a.25.25,0,0,0-.22.16l-1.39,5.37h0l-1.94-5.52a.2.2,0,0,0-.19-.13h-.21a.2.2,0,0,0-.2.13l-1.91,5.52h0l-1.41-5.37a.25.25,0,0,0-.21-.16h-.79a.2.2,0,0,0-.21.28l2.21,7.86Zm9.54-.18a.23.23,0,0,0,.23.23h4.68a.23.23,0,0,0,.22-.23v-.64a.22.22,0,0,0-.22-.22h-3.7v-2.52h3.12a.22.22,0,0,0,.22-.22v-.65a.23.23,0,0,0-.22-.23h-3.12v-2.38h3.7a.23.23,0,0,0,.22-.23V540a.22.22,0,0,0-.22-.22h-4.68a.22.22,0,0,0-.23.22v7.74Zm7-.58a3.72,3.72,0,0,0,2.51.92,2.39,2.39,0,0,0,2.61-2.21c0-1.42-1.16-2.07-2.51-2.62-1-.4-1.49-.81-1.49-1.47,0-.44.34-1.06,1.32-1.06a3.53,3.53,0,0,1,1.58.59.27.27,0,0,0,.41-.12l.29-.44a.27.27,0,0,0-.07-.4,3.93,3.93,0,0,0-2.16-.69,2.28,2.28,0,0,0-2.56,2.16c0,1.36.93,2,2.13,2.49s1.76.92,1.76,1.62a1.17,1.17,0,0,1-1.32,1.09,3.41,3.41,0,0,1-1.87-.81.27.27,0,0,0-.4.1l-.3.48a.24.24,0,0,0,.07.37Zm8.37.58a.23.23,0,0,0,.22.23h.77a.23.23,0,0,0,.22-.23v-6.86h1.91a.22.22,0,0,0,.22-.23V540a.22.22,0,0,0-.22-.22h-5a.22.22,0,0,0-.22.22v.65a.22.22,0,0,0,.22.23h1.91v6.86Zm4.4,0a.21.21,0,0,0,.22.27h.76a.22.22,0,0,0,.21-.17l.85-5.23h0l2.12,5.39a.21.21,0,0,0,.2.12h.21a.19.19,0,0,0,.2-.12l2.11-5.39h0l.87,5.23a.23.23,0,0,0,.22.17h.76a.2.2,0,0,0,.21-.27l-1.44-7.86a.23.23,0,0,0-.21-.18h-.19a.24.24,0,0,0-.2.13l-2.43,6h0l-2.44-6a.25.25,0,0,0-.2-.13h-.19a.23.23,0,0,0-.21.18L1010,547.7Zm11.24,0a.23.23,0,0,0,.22.23h.77a.23.23,0,0,0,.22-.23V540a.22.22,0,0,0-.22-.22h-.77a.22.22,0,0,0-.22.22v7.74Zm4,0a.24.24,0,0,0,.22.23h.74a.22.22,0,0,0,.22-.23v-5.69h0l5.07,6h.31a.22.22,0,0,0,.22-.21V540a.23.23,0,0,0-.22-.22H1031a.22.22,0,0,0-.22.22v5.53h0l-5.07-5.87h-.3a.22.22,0,0,0-.22.21v7.87Zm9.65-.58a3.79,3.79,0,0,0,2.52.92,2.39,2.39,0,0,0,2.61-2.21c0-1.42-1.16-2.07-2.52-2.62-1-.4-1.48-.81-1.48-1.47,0-.44.34-1.06,1.32-1.06a3.53,3.53,0,0,1,1.58.59c.16.11.31,0,.41-.12l.29-.44a.28.28,0,0,0-.07-.4,4,4,0,0,0-2.16-.69,2.29,2.29,0,0,0-2.57,2.16c0,1.36.94,2,2.13,2.49s1.77.92,1.77,1.62a1.18,1.18,0,0,1-1.32,1.09,3.41,3.41,0,0,1-1.87-.81.27.27,0,0,0-.4.1c-.11.15-.2.32-.31.48a.25.25,0,0,0,.07.37Zm8.37.58a.24.24,0,0,0,.23.23h.77a.23.23,0,0,0,.22-.23v-6.86h1.91a.22.22,0,0,0,.22-.23V540a.22.22,0,0,0-.22-.22h-5a.22.22,0,0,0-.23.22v.65a.23.23,0,0,0,.23.23h1.9v6.86Zm5.12,0a.23.23,0,0,0,.22.23h4.68a.23.23,0,0,0,.23-.23v-.64a.22.22,0,0,0-.23-.22h-3.69v-2.52h3.12a.22.22,0,0,0,.22-.22v-.65a.23.23,0,0,0-.22-.23h-3.12v-2.38h3.69a.23.23,0,0,0,.23-.23V540a.22.22,0,0,0-.23-.22h-4.68a.22.22,0,0,0-.22.22v7.74Zm7.4,0a.22.22,0,0,0,.22.23h.76a.24.24,0,0,0,.23-.23v-3h1.76l1.56,3.1a.2.2,0,0,0,.19.11h.91a.22.22,0,0,0,.2-.34l-1.61-3a2.61,2.61,0,0,0,1.74-2.38,2.52,2.52,0,0,0-2.55-2.5H1056a.22.22,0,0,0-.22.22v7.74Zm1.23-4v-2.85h2.08a1.44,1.44,0,0,1,1.43,1.39,1.46,1.46,0,0,1-1.43,1.46Zm-77.72,18.63a.24.24,0,0,0,.22.22h.77a.24.24,0,0,0,.23-.22v-7.75a.23.23,0,0,0-.23-.22h-.77a.23.23,0,0,0-.22.22v7.75Zm4,0a.24.24,0,0,0,.23.22h.73a.23.23,0,0,0,.23-.22v-5.7h0l5.08,6h.3a.22.22,0,0,0,.22-.21v-7.88a.22.22,0,0,0-.22-.22h-.75a.22.22,0,0,0-.22.22v5.54h0l-5.08-5.88h-.29a.23.23,0,0,0-.23.21v7.88Zm10.7,0a.24.24,0,0,0,.23.22H995a.24.24,0,0,0,.22-.22v-6.87h1.91a.22.22,0,0,0,.22-.22v-.66a.22.22,0,0,0-.22-.22h-5a.22.22,0,0,0-.23.22v.66a.23.23,0,0,0,.23.22H994v6.87Zm5.12,0a.22.22,0,0,0,.22.22H1004a.23.23,0,0,0,.23-.22v-.65a.23.23,0,0,0-.23-.22h-3.69V559h3.12a.22.22,0,0,0,.22-.23v-.65a.22.22,0,0,0-.22-.22h-3.12v-2.39H1004a.23.23,0,0,0,.23-.22v-.66a.22.22,0,0,0-.23-.22h-4.68a.22.22,0,0,0-.22.22v7.75Zm7.4,0a.22.22,0,0,0,.22.22h.76a.23.23,0,0,0,.22-.22v-3h1.77l1.56,3.1a.2.2,0,0,0,.19.11h.91a.22.22,0,0,0,.2-.34l-1.61-3a2.61,2.61,0,0,0,1.74-2.38,2.53,2.53,0,0,0-2.56-2.5h-3.18a.22.22,0,0,0-.22.22v7.75Zm1.23-4v-2.85h2.08a1.44,1.44,0,0,1,1.43,1.4,1.46,1.46,0,0,1-1.43,1.45Zm7.06,4a.23.23,0,0,0,.22.22h.74a.22.22,0,0,0,.22-.22v-5.7h0l5.08,6h.3a.23.23,0,0,0,.23-.21v-7.88a.23.23,0,0,0-.23-.22h-.74a.22.22,0,0,0-.23.22v5.54h0l-5.08-5.88H1015a.22.22,0,0,0-.22.21v7.88Zm8.67.22h.74a.29.29,0,0,0,.27-.18c.23-.53.48-1.06.71-1.6H1029l.72,1.6a.27.27,0,0,0,.27.18h.74a.2.2,0,0,0,.2-.3l-3.57-7.88a.27.27,0,0,0-.2-.13H1027a.27.27,0,0,0-.19.13l-3.6,7.88a.21.21,0,0,0,.2.3Zm2.18-2.79,1.43-3.2h0l1.44,3.2Zm7.67,2.57a.23.23,0,0,0,.22.22h.77a.23.23,0,0,0,.22-.22v-6.87h1.91a.22.22,0,0,0,.22-.22v-.66a.22.22,0,0,0-.22-.22h-5a.22.22,0,0,0-.22.22v.66a.22.22,0,0,0,.22.22h1.91v6.87Zm5.12,0a.23.23,0,0,0,.22.22h.77a.23.23,0,0,0,.22-.22v-7.75a.22.22,0,0,0-.22-.22h-.77a.22.22,0,0,0-.22.22v7.75Zm3.39-3.86a4.21,4.21,0,0,0,8.42,0,4.21,4.21,0,1,0-8.42,0Zm1.17,0a3,3,0,1,1,3,3,3.07,3.07,0,0,1-3-3Zm9.43,3.86a.23.23,0,0,0,.22.22h.74a.23.23,0,0,0,.22-.22v-5.7h0l5.08,6h.3a.22.22,0,0,0,.22-.21v-7.88a.22.22,0,0,0-.22-.22h-.75a.22.22,0,0,0-.22.22v5.54h0l-5.08-5.88h-.29a.22.22,0,0,0-.22.21v7.88Zm8.67.22h.74a.29.29,0,0,0,.27-.18c.23-.53.48-1.06.71-1.6h3.83l.72,1.6a.27.27,0,0,0,.27.18h.74a.21.21,0,0,0,.2-.3l-3.57-7.88a.28.28,0,0,0-.2-.13h-.12a.28.28,0,0,0-.2.13l-3.59,7.88a.2.2,0,0,0,.2.3Zm2.18-2.79,1.42-3.2h.06l1.44,3.2Zm7,2.57a.22.22,0,0,0,.22.22h4.16a.23.23,0,0,0,.23-.22v-.65a.23.23,0,0,0-.23-.22h-3.17v-6.88a.22.22,0,0,0-.22-.22h-.77a.22.22,0,0,0-.22.22v7.75ZM978.8,576.44a3.78,3.78,0,0,0,2.52.93,2.39,2.39,0,0,0,2.61-2.21c0-1.43-1.16-2.07-2.52-2.62-1-.4-1.48-.81-1.48-1.48,0-.43.34-1,1.32-1a3.68,3.68,0,0,1,1.58.58.28.28,0,0,0,.41-.11l.29-.45a.28.28,0,0,0-.07-.4,4,4,0,0,0-2.16-.69,2.3,2.3,0,0,0-2.57,2.17c0,1.36.94,2,2.13,2.48s1.77.92,1.77,1.63a1.17,1.17,0,0,1-1.32,1.08,3.43,3.43,0,0,1-1.87-.8.26.26,0,0,0-.4.09c-.11.15-.2.33-.31.48a.25.25,0,0,0,.07.37Zm6.65-3.27a4.2,4.2,0,0,0,4.23,4.2,4,4,0,0,0,2.84-1.14.21.21,0,0,0,0-.31l-.54-.53a.21.21,0,0,0-.28,0,3.08,3.08,0,0,1-2,.78,3,3,0,0,1,0-6.08,3.16,3.16,0,0,1,2,.79.19.19,0,0,0,.3,0l.51-.53a.21.21,0,0,0,0-.33,4.07,4.07,0,0,0-2.83-1.09,4.23,4.23,0,0,0-4.23,4.23ZM994.7,577a.23.23,0,0,0,.22.22h.78a.22.22,0,0,0,.22-.22v-3.38h4.28V577a.22.22,0,0,0,.22.22h.78a.23.23,0,0,0,.22-.22v-7.75a.24.24,0,0,0-.22-.22h-.78a.22.22,0,0,0-.22.22v3.27h-4.28v-3.27a.23.23,0,0,0-.22-.22h-.78a.24.24,0,0,0-.22.22V577Zm8.9-3.86a4.21,4.21,0,1,0,4.2-4.23,4.17,4.17,0,0,0-4.2,4.23Zm1.17,0a3,3,0,1,1,3,3,3,3,0,0,1-3-3Zm8.83,0a4.21,4.21,0,1,0,4.2-4.23,4.17,4.17,0,0,0-4.2,4.23Zm1.17,0a3,3,0,1,1,3,3,3,3,0,0,1-3-3Zm9.42,3.86a.22.22,0,0,0,.22.22h4.17a.22.22,0,0,0,.22-.22v-.64a.22.22,0,0,0-.22-.23h-3.17v-6.88a.24.24,0,0,0-.23-.22h-.77a.22.22,0,0,0-.22.22V577Zm-44.93,14.64a.23.23,0,0,0,.22.22h.77a.23.23,0,0,0,.23-.22v-7.74a.24.24,0,0,0-.23-.23h-.77a.24.24,0,0,0-.22.23v7.74Zm4,0a.23.23,0,0,0,.23.22h.73a.22.22,0,0,0,.23-.22V586h0l5.08,6h.3a.21.21,0,0,0,.22-.21v-7.87a.23.23,0,0,0-.22-.23h-.75a.22.22,0,0,0-.22.23v5.53h0l-5.08-5.87h-.29a.22.22,0,0,0-.23.21v7.87Zm13.28,0a.22.22,0,0,0,.22.22h.77a.22.22,0,0,0,.22-.22V584.8h1.91a.22.22,0,0,0,.22-.22v-.65a.22.22,0,0,0-.22-.23h-5a.22.22,0,0,0-.22.23v.65a.22.22,0,0,0,.22.22h1.91v6.87Zm3.77.22h.74a.27.27,0,0,0,.26-.17c.24-.54.49-1.07.72-1.6h3.83l.72,1.6a.28.28,0,0,0,.27.17h.74a.21.21,0,0,0,.2-.3l-3.57-7.88a.27.27,0,0,0-.2-.12h-.12a.27.27,0,0,0-.2.12l-3.59,7.88a.2.2,0,0,0,.2.3Zm2.18-2.78,1.42-3.21h.06l1.44,3.21Zm6.52,2a3.78,3.78,0,0,0,2.51.92,2.39,2.39,0,0,0,2.61-2.21c0-1.43-1.16-2.07-2.51-2.62-1-.4-1.49-.81-1.49-1.48,0-.43.34-1.05,1.32-1.05a3.53,3.53,0,0,1,1.58.59.28.28,0,0,0,.41-.12c.1-.14.2-.31.29-.45a.26.26,0,0,0-.07-.39,3.85,3.85,0,0,0-2.16-.69,2.28,2.28,0,0,0-2.56,2.16c0,1.36.93,2,2.13,2.48s1.76.93,1.76,1.63a1.18,1.18,0,0,1-1.32,1.09,3.41,3.41,0,0,1-1.87-.81c-.13-.11-.29-.06-.4.09l-.3.48c-.12.2,0,.28.07.38Zm7.24.58a.23.23,0,0,0,.23.22h.77a.22.22,0,0,0,.22-.22v-3.38h4.28v3.38a.22.22,0,0,0,.23.22h.77a.22.22,0,0,0,.22-.22v-7.74a.23.23,0,0,0-.22-.23H1022a.23.23,0,0,0-.23.23v3.26h-4.28v-3.26a.22.22,0,0,0-.22-.23h-.77a.24.24,0,0,0-.23.23v7.74Zm9.5-.06a.27.27,0,0,0,.28.28h.68a.28.28,0,0,0,.28-.28V588l3.4,3.84a.26.26,0,0,0,.21.08h.94a.24.24,0,0,0,.21-.38l-3.58-4,3.38-3.44a.24.24,0,0,0-.16-.42h-.88a.29.29,0,0,0-.22.12l-3.3,3.41V584a.29.29,0,0,0-.28-.28H1026a.27.27,0,0,0-.28.28v7.63Zm7.89.06a.22.22,0,0,0,.22.22h4.68a.22.22,0,0,0,.22-.22V591a.22.22,0,0,0-.22-.22h-3.7v-2.52H1038a.22.22,0,0,0,.22-.22v-.66a.23.23,0,0,0-.22-.22h-3.13V584.8h3.7a.22.22,0,0,0,.22-.22v-.65a.22.22,0,0,0-.22-.23h-4.68a.22.22,0,0,0-.22.23v7.74Zm7.4,0a.22.22,0,0,0,.22.22h.74a.22.22,0,0,0,.22-.22V586h0l5.08,6h.3a.22.22,0,0,0,.23-.21v-7.87a.24.24,0,0,0-.23-.23h-.74a.23.23,0,0,0-.23.23v5.53h0l-5.08-5.87h-.29a.21.21,0,0,0-.22.21v7.87Zm10.7,0a.22.22,0,0,0,.22.22h.77a.22.22,0,0,0,.22-.22V584.8h1.91a.22.22,0,0,0,.22-.22v-.65a.22.22,0,0,0-.22-.23h-5a.22.22,0,0,0-.22.23v.65a.22.22,0,0,0,.22.22h1.91v6.87Z" transform="translate(-818 -488)" style="fill:#3c3c3b"/><path d="M1013,490.86l-12.47,34.21a1,1,0,0,1-1.78,0l-8.57-19.21c-.16-.4-.38-.6-.64-.6s-.48.2-.65.6L980.27,525a1,1,0,0,1-.92.54.87.87,0,0,1-.86-.59l-12.33-34.06a1,1,0,0,1,.05-1,1.07,1.07,0,0,1,.94-.42h4.31a2.13,2.13,0,0,1,1.24.42,2.08,2.08,0,0,1,.79,1l6.09,17c.13.4.31.59.54.59s.43-.18.6-.54L988.59,490a.92.92,0,0,1,.91-.55.93.93,0,0,1,.92.55l7.87,17.92c.16.36.36.54.59.54s.42-.2.55-.59l6.24-17a2,2,0,0,1,.79-1,2.11,2.11,0,0,1,1.24-.42h4.3a1.07,1.07,0,0,1,.94.42,1,1,0,0,1,0,1Zm14.72,34.75h-3.91a1.41,1.41,0,0,1-1.06-.44,1.53,1.53,0,0,1-.42-1.09V491a1.53,1.53,0,0,1,.42-1.09,1.38,1.38,0,0,1,1.06-.45h3.91a1.46,1.46,0,0,1,1.09.45,1.48,1.48,0,0,1,.45,1.09v33.12a1.52,1.52,0,0,1-1.54,1.53Zm13.19-6,2.08-3.07a1.34,1.34,0,0,1,.94-.64,1.52,1.52,0,0,1,1.14.25,42.1,42.1,0,0,0,4.36,2.37,13.54,13.54,0,0,0,6.09,1.39,9,9,0,0,0,3-.45,6.62,6.62,0,0,0,2.17-1.09,4.77,4.77,0,0,0,1.34-1.53,3.36,3.36,0,0,0,.45-1.68,2.88,2.88,0,0,0-.7-1.89,5.8,5.8,0,0,0-1.78-1.23,8.68,8.68,0,0,0-1.19-.45c-.43-.13-.9-.26-1.43-.39s-1-.25-1.51-.35l-1.61-.3-1.19-.22-1.34-.27a14.7,14.7,0,0,1-3-.75,14.4,14.4,0,0,1-3-1.23,10.34,10.34,0,0,1-2.67-1.93,8.12,8.12,0,0,1-1.93-2.78,9.55,9.55,0,0,1-.69-3.76,10.29,10.29,0,0,1,1.28-5.29A10.17,10.17,0,0,1,1045,491a14.77,14.77,0,0,1,4.46-1.68,22.08,22.08,0,0,1,4.75-.5,24.65,24.65,0,0,1,4.06.3c.59.1,1.16.22,1.71.37s1.08.3,1.6.47a16.27,16.27,0,0,1,1.54.67c.49.24,1,.5,1.43.76s.65.4,1,.6a10.8,10.8,0,0,0,1,.59,1.56,1.56,0,0,1,.64,1,1.43,1.43,0,0,1-.3,1.14l-2.08,3a1.49,1.49,0,0,1-1,.64,1.63,1.63,0,0,1-1.17-.24,18.75,18.75,0,0,0-3.66-1.88,13.16,13.16,0,0,0-5-.94,8.13,8.13,0,0,0-1,.05c-.35,0-.7.08-1.07.14a10.4,10.4,0,0,0-2.18.75,6.24,6.24,0,0,0-.91.54,4.58,4.58,0,0,0-.77.69,2.89,2.89,0,0,0-.64,1.88,2.42,2.42,0,0,0,.79,1.84,6.46,6.46,0,0,0,2,1.23c.43.17.87.32,1.31.45l1.41.4c.5.13,1,.24,1.46.34s1,.22,1.41.35.75.15,1.14.25a11.41,11.41,0,0,0,1.29.24c.46.07.94.16,1.43.28a13.84,13.84,0,0,1,1.49.42c.26.06.54.15.82.24l.81.3c.4.17.85.38,1.36.65a9.2,9.2,0,0,1,1.32.79,5.66,5.66,0,0,1,.71.52,8.37,8.37,0,0,1,.62.57,8.22,8.22,0,0,1,1.88,2.87,10.41,10.41,0,0,1,.75,4.16,11.53,11.53,0,0,1-1,4.9,8.85,8.85,0,0,1-2.83,3.41,12,12,0,0,1-4.35,2.08,22,22,0,0,1-5.6.69,24.52,24.52,0,0,1-5-.44,17.71,17.71,0,0,1-3.91-1.14c-.59-.23-1.17-.49-1.73-.77s-1.1-.58-1.63-.91l-1-.62c-.33-.22-.68-.46-1-.72a1.33,1.33,0,0,1-.65-.94,1.61,1.61,0,0,1,.25-1.14Zm59-24.11h-7.28a1.48,1.48,0,0,0-1.09.45,1.51,1.51,0,0,0-.44,1.09v27a1.52,1.52,0,0,1-1.54,1.53h-3.86a1.5,1.5,0,0,1-1.53-1.53v-27a1.48,1.48,0,0,0-.45-1.09,1.46,1.46,0,0,0-1.09-.45h-7.32a1.52,1.52,0,0,1-1.54-1.53v-3.07a1.48,1.48,0,0,1,.45-1.09,1.46,1.46,0,0,1,1.09-.45h24.6a1.52,1.52,0,0,1,1.53,1.54V494a1.47,1.47,0,0,1-.44,1.09,1.51,1.51,0,0,1-1.09.44Z" transform="translate(-818 -488)" style="fill:#3c3c3b"/></svg>