<svg xmlns="http://www.w3.org/2000/svg" viewBox="0 0 125.8 104.01"><defs><style>.cls-1{fill:#3c3c3b;}.cls-1,.cls-2{fill-rule:evenodd;}.cls-2{fill:#fff;}</style></defs><g id="Layer_2" data-name="Layer 2"><g id="e98ffe8a-857e-41f7-950d-542554891369"><path class="cls-1" d="M0,0,30.83,53.27s3.32,5.27,9.53,5.27A9.44,9.44,0,0,0,48.84,53l14.07-23.9L77.15,53.12s3,5.38,8.89,5.38,7.42-2.38,10.76-8.17L125.8,0Z"/><path class="cls-1" d="M61.84,80.33,42.34,69.07a1.18,1.18,0,0,1,.59-2.19H83.09a1.14,1.14,0,0,1,1,.59,1.12,1.12,0,0,1,0,1.17L64,103.42a1.14,1.14,0,0,1-1.31.55,1.17,1.17,0,0,1-.87-1.13V80.33Z"/><path class="cls-2" d="M58.89,3.73H73L48,47c-1.93,3.35-3.16,7-7,7h0c-3.87,0-9-3.69-7-7L58.93,3.77Z"/><path class="cls-2" d="M105.28,3.79h14.07L94.45,47c-1.93,3.35-3.16,7-7,7h0c-3.87,0-9-3.69-7-7L105.34,3.83Z"/></g></g></svg>